<svg viewBox="0 0 74 22" xmlns="http://www.w3.org/2000/svg"><path d="M0 21.763h8.225c4.918 0 7.146-2.528 7.146-5.87 0-3.355-2.243-5.337-4.328-5.47v-.03c1.913-.502 3.451-1.936 3.451-4.642C14.494 2.543 12.323 0 7.808 0H0v21.763Zm3.25-2.868v-6.904h4.802c2.574 0 4.142 1.685 4.142 3.725 0 1.819-1.208 3.18-4.257 3.18H3.25Zm0-9.55V2.808h4.428c2.56 0 3.725 1.375 3.725 3.12 0 2.084-1.64 3.415-3.782 3.415H3.25Zm24.104 5.825c0 2.838-1.61 4.08-3.667 4.08-2.1 0-3.465-1.301-3.465-3.785V6.151H17.13v9.699c0 4.036 2.56 6.15 5.68 6.15 2.387 0 3.897-1.242 4.573-2.868h.057v2.631h2.991V6.151h-3.077v9.018ZM38.68 22c3.437 0 6.04-1.996 6.614-5.027h-2.962c-.431 1.464-1.912 2.425-3.638 2.425-2.545 0-4.069-2.07-4.069-4.613h10.856v-.813c0-4.776-2.574-8.058-6.873-8.058-4.3 0-7.089 3.312-7.089 8.073 0 4.76 2.804 8.013 7.161 8.013Zm-4.04-9.536c.129-2.085 1.596-3.963 3.94-3.963 2.185 0 3.824 1.612 3.896 3.963H34.64Zm15.02.281c0-2.84 1.611-4.081 3.653-4.081 2.114 0 3.48 1.301 3.48 3.785v9.314h3.077v-9.699c0-4.036-2.545-6.15-5.68-6.15-2.372 0-3.882 1.242-4.558 2.868h-.057V6.151h-3.006v15.612h3.092v-9.018Zm16.733 9.24c2.603 0 3.883-1.168 4.544-2.44h.058v2.218H74V11.06c0-3.046-2.344-5.145-6.082-5.145-3.825 0-6.27 2.188-6.414 5.056h3.106c.13-1.419 1.38-2.454 3.279-2.454 1.912 0 3.034 1.035 3.034 2.543v.074c0 1.139-.95 1.109-3.796 1.464-3.092.37-5.996 1.153-5.996 4.701 0 3.12 2.243 4.687 5.262 4.687Zm.662-2.528c-1.754 0-2.833-.769-2.847-2.1-.015-1.567 1.48-2.188 3.12-2.424 1.596-.222 3.192-.488 3.61-.813v1.803c0 1.908-1.252 3.534-3.883 3.534Z" fill="var(rgb(12, 10, 9))"/></svg>